<?xml version="1.0" encoding="utf-8"?>
<!-- Generator: Adobe Illustrator 26.0.2, SVG Export Plug-In . SVG Version: 6.00 Build 0)  -->
<svg version="1.1" id="Layer_1" xmlns="http://www.w3.org/2000/svg" xmlns:xlink="http://www.w3.org/1999/xlink" x="0px" y="0px"
	 viewBox="0 0 1492.4 259.1" style="enable-background:new 0 0 1492.4 259.1;" xml:space="preserve">
<style type="text/css">
	.st0{fill:#FF0000;}
	.st1{fill:#FFFFFF;}
</style>
<g>
	<rect x="1156.1" y="224.4" class="st0" width="30" height="30"/>
	<g>
		<path class="st1" d="M126.4,154.6l49.9-50.1V4.5h-150v250h125l50.1-50.1v-49.9H126.4z M126.3,204.5H76.2v-50h50.1V204.5z
			 M126.3,99.4H76.2V54.5h50.1V99.4z"/>
		<g>
			<polygon class="st1" points="406.2,4.5 406.2,254.5 356.1,254.5 356.1,204.7 356.6,204.3 356.1,204.3 356.1,4.5 			"/>
			<polygon class="st1" points="356.1,204.3 356.1,204.7 306.4,254.5 256.2,254.5 256.2,4.5 306.2,4.5 306.2,204.3 			"/>
		</g>
		<g>
			<polygon class="st1" points="871.2,4.5 871.2,254.5 821.2,254.5 821.2,204.6 821.5,204.3 821.2,204.3 821.2,4.5 			"/>
			<polygon class="st1" points="821.2,204.3 821.2,204.6 771.2,254.5 721.2,254.5 721.2,4.5 771.2,4.5 771.2,204.3 			"/>
		</g>
		<polygon class="st1" points="536.1,204.3 591.2,204.3 591.2,104.4 641.2,104.4 641.2,204.5 591.2,254.5 486.2,254.5 486.2,54.7 
			536.1,4.6 536.2,4.5 641.2,4.5 641.2,54.7 536.1,54.7 		"/>
		<g>
			<rect x="951.2" y="4.5" class="st1" width="50.1" height="250"/>
			<polygon class="st1" points="1106.2,4.5 1106.2,254.5 1051.2,254.5 1051.2,54.7 1001.2,54.7 1051.2,4.7 1051.4,4.5 			"/>
		</g>
	</g>
	<g>
		<g>
			<polygon class="st1" points="1296.2,224.4 1266.2,254.5 1266.2,254.5 1236.2,254.5 1236.2,164.4 1266.2,164.4 1266.2,224.4 			
				"/>
			<rect x="1296.2" y="164.4" class="st1" width="30" height="90"/>
		</g>
		<g>
			<polygon class="st1" points="1466.2,224.4 1466.2,254.5 1376.1,254.5 1376.1,224.5 1406.1,194.5 1406.1,224.4 			"/>
			<polygon class="st1" points="1466.2,164.4 1466.2,194.5 1436.2,224.4 1436.2,194.5 1376.1,194.5 1376.1,164.4 			"/>
		</g>
	</g>
</g>
</svg>
